# xmcd
#
# Track frame offsets:
#   150
#   20169
#   37650
#   39463
#   58312
#   75706
#   92795
#   115104
#   116761
#   135895
#   153107
#   173623
#   188992
#   190606
#   213195
#   237026
#   260865
#   262477
#   287457
#   312745
#   333896
#
# Disc length: 4769 seconds
#
# Revision: 0
# Processed by: cddbd v1.5.2PL0 Copyright (c) Steve Scherf et al.
# Submitted via: GXTranscoder 2.0.1939
#
DISCID=25129f15
DTITLE=Michael BOLTON - The ultimate
DYEAR=2012
DGENRE=Blues
TTITLE0=soul provider (single version)
TTITLE1=(sittin'on) the dock of the bay
TTITLE2=RIEN
TTITLE3=how am I supposed to live whitout you
TTITLE4=how can whe be lovers
TTITLE5=when I'm back on my feet again
TTITLE6=georgia on my mind
TTITLE7=RIEN
TTITLE8=time, love and tenderness (single version)
TTITLE9=when a man love a woman
TTITLE10=missing you now
TTITLE11=stell bars
TTITLE12=RIEN
TTITLE13=said I love you . . . . there
TTITLE14=lean on me
TTITLE15=can't I touch you . . . . there
TTITLE16=RIEN
TTITLE17=love is the power
TTITLE18=soul of my soul
TTITLE19=whiter shade of pale
TTITLE20=I promise you
EXTD=
EXTT0=
EXTT1=
EXTT2=
EXTT3=
EXTT4=
EXTT5=
EXTT6=
EXTT7=
EXTT8=
EXTT9=
EXTT10=
EXTT11=
EXTT12=
EXTT13=
EXTT14=
EXTT15=
EXTT16=
EXTT17=
EXTT18=
EXTT19=
EXTT20=
PLAYORDER=
